# xmcd
# 
# Track frame offsets:
#     150
#     15927
#     39766
#     55637
#     72707
#     91362
#     115384
#     133713
#     151955
#     177734
#     197878
#     222173
#     242874
#     261809
# 
# Disc length: 3694
# 
# Revision: 0
# Processed by: cddbd v1.5.2PL0 Copyright (c) Steve Scherf et al.
# Submitted via: fre:ac v1.0.31
# 
DISCID=c60e6c0e
DTITLE=Various Artist - Let's Step Outside
DYEAR=2006
DGENRE=Country
TTITLE0=Honeybrowne - Take Me Home, Country Roads
TTITLE1=Kevin Fowler - Beer, Bait and Ammo
TTITLE2=Jack Ingram - The Fisherman
TTITLE3=Pat Green - West Texas Holiday
TTITLE4=Robert Earl Keen - Five Pound Bass
TTITLE5=Jerry Jeff Walker - Keep Texas Beautiful
TTITLE6=Guy Clark - South Coast of Texas
TTITLE7=Jason Allen - John Boat Blues
TTITLE8=Roger Creager - I Got the Guns
TTITLE9=Gary P. Nunn - My Kind of Day on Padre
TTITLE10=Randy Rogers Band - They Call It the Hill Country
TTITLE11=James McMurtry - Ole Slew Foot
TTITLE12=Cory Morrow - Dance by the Rio Grande
TTITLE13=Reckless Kelly - Snowfall
EXTD=
EXTT0=
EXTT1=
EXTT2=
EXTT3=
EXTT4=
EXTT5=
EXTT6=
EXTT7=
EXTT8=
EXTT9=
EXTT10=
EXTT11=
EXTT12=
EXTT13=
PLAYORDER=
